<?xml version="1.0" encoding="UTF-8"?>
<svg id="Layer_1" data-name="Layer 1" xmlns="http://www.w3.org/2000/svg" viewBox="0 0 99.25 16.88">
  <defs>
    <style>
      .cls-1 {
        fill: #fff;
      }

      .cls-2 {
        fill: #ffbf4d;
      }
    </style>
  </defs>
  <g>
    <path class="cls-1" d="M12.18,.45h2.29V15.23h4.2v1.64h-6.49V.45Z"/>
    <path class="cls-1" d="M24.21,.45h2.21l3.51,16.43h-2.17l-.75-4.14h-3.35l-.79,4.14h-2.15L24.21,.45Zm2.49,10.65l-1.38-7.4-1.36,7.4h2.74Z"/>
    <path class="cls-1" d="M35.04,11.07L31.49,.45h2.13l2.51,7.93L38.6,.45h2.15l-3.53,10.63v5.8h-2.19v-5.8Z"/>
    <path class="cls-1" d="M43.92,.45h2.25l2.9,13.32L51.99,.45h2.23l.3,16.43h-1.85l-.18-11.92-2.78,11.92h-1.3l-2.76-11.92-.18,11.92h-1.87l.3-16.43Z"/>
    <path class="cls-1" d="M61.01,.45h2.21l3.51,16.43h-2.17l-.75-4.14h-3.35l-.79,4.14h-2.15L61.01,.45Zm2.49,10.65l-1.38-7.4-1.36,7.4h2.74Z"/>
    <path class="cls-1" d="M69.77,.45h2.29v7.75l3.77-7.75h2.13l-3.25,7.24,3.77,9.19h-2.23l-3.14-7.71-1.05,1.91v5.8h-2.29V.45Z"/>
    <path class="cls-1" d="M81.18,.45h6.37v1.7h-4.08V7.59h3.31v1.62h-3.31v6.02h4.12v1.64h-6.41V.45Z"/>
    <path class="cls-1" d="M90.81,.45h3.31c3.29,0,4.83,1.24,4.83,4.36,0,1.93-.57,3.35-2.03,3.83l2.33,8.23h-2.21l-2.15-7.71h-1.78v7.71h-2.29V.45Zm3.16,7.08c1.93,0,2.76-.61,2.76-2.72,0-1.93-.53-2.72-2.62-2.72h-1.01V7.53h.87Z"/>
  </g>
  <g>
    <path class="cls-2" d="M3.72,11.74H.23c-.12,0-.21,.08-.21,.19v4.76c0,.1,.09,.19,.21,.19H3.72c.12,0,.21-.08,.21-.19v-4.76c0-.1-.09-.19-.21-.19Z"/>
    <path class="cls-2" d="M.02,6.1v4.67c0,.13,.12,.24,.27,.24h7.85c.99,0,1.8-.72,1.8-1.6v-3.31c0-.13-.12-.24-.27-.24H.29c-.15,0-.27,.11-.27,.24Z"/>
    <path class="cls-2" d="M.34,5.14H7.74c.19,0,.34-.14,.34-.31V2.08c0-1.15-1.04-2.08-2.33-2.08H.34c-.19,0-.34,.14-.34,.31V4.83c0,.17,.15,.31,.34,.31Z"/>
  </g>
</svg>