<?xml version="1.0" encoding="UTF-8"?>
<svg id="Layer_1" data-name="Layer 1" xmlns="http://www.w3.org/2000/svg" viewBox="0 0 150 150">
  <defs>
    <style>
      .cls-1 {
        fill: #ffbf4d;
      }
    </style>
  </defs>
  <path class="cls-1" d="M75,0C33.58,0,0,33.58,0,75s33.58,75,75,75,75-33.58,75-75S116.42,0,75,0Zm-17,35.49c0-.82,.67-1.49,1.49-1.49h23.41c5.58,0,10.1,4.52,10.1,10.1v13.38c0,.82-.67,1.49-1.49,1.49H59.49c-.82,0-1.49-.67-1.49-1.49v-21.99Zm17,79.6c0,.5-.41,.91-.91,.91h-15.1c-.5,0-.91-.41-.91-.91v-23.15c0-.5,.41-.91,.91-.91h15.1c.5,0,.91,.41,.91,.91v23.15Zm26-35.37c0,4.3-3.48,7.78-7.78,7.78H59.25c-.64,0-1.16-.52-1.16-1.16v-22.68c0-.64,.52-1.16,1.16-1.16h40.59c.64,0,1.16,.52,1.16,1.16v16.06Z"/>
</svg>