<?xml version="1.0" encoding="utf-8"?>
<svg width="23px" height="23px" viewBox="0 0 23 23" version="1.1" xmlns:xlink="http://www.w3.org/1999/xlink" xmlns="http://www.w3.org/2000/svg">
  <defs>
    <radialGradient gradientUnits="objectBoundingBox" cx="49.999992%" cy="50%" fx="49.999992%" fy="50%" r="50.000004%" gradientTransform="translate(0.49999994,0.5),scale(0.9999999,0.9999999),translate(-0.49999994,-0.5)" id="gradient_1">
      <stop offset="17.7%" stop-color="#000000" />
      <stop offset="100%" stop-color="#000000" stop-opacity="0" />
    </radialGradient>
    <path d="M23 0L23 0L23 23L0 23L0 0L23 0Z" id="path_1" />
    <clipPath id="clip_1">
      <use xlink:href="#path_1" clip-rule="evenodd" fill-rule="evenodd" />
    </clipPath>
  </defs>
  <g id="Maps">
    <path d="M23 0L23 0L23 23L0 23L0 0L23 0Z" id="Maps" fill="none" stroke="none" />
    <path d="M17.6822 16.5485C19.1916 14.995 20.125 12.8786 20.125 10.5417C20.125 5.77875 16.2629 1.91666 11.5 1.91666C6.73708 1.91666 2.875 5.77875 2.875 10.5417C2.875 12.8786 3.80842 14.995 5.31779 16.5485C5.32642 16.5576 5.33217 16.5677 5.34079 16.5768L5.36906 16.605C5.39158 16.628 5.4141 16.6506 5.4371 16.6731L10.8225 22.0584C11.1967 22.4327 11.8033 22.4327 12.1775 22.0584L17.5629 16.6731C17.5859 16.6506 17.6084 16.628 17.6309 16.605L17.6592 16.5768C17.6683 16.5677 17.6741 16.5571 17.6822 16.5485L17.6822 16.5485Z" id="Shape" fill="#D1C4E9" stroke="none" clip-path="url(#clip_1)" />
    <path d="M17.6822 16.5485C19.1916 14.995 20.125 12.8786 20.125 10.5417C20.125 5.77875 16.2629 1.91666 11.5 1.91666C6.73708 1.91666 2.875 5.77875 2.875 10.5417C2.875 12.8786 3.80842 14.995 5.31779 16.5485C5.32642 16.5576 5.33217 16.5677 5.34079 16.5768L5.36906 16.605C5.39158 16.628 5.4141 16.6506 5.4371 16.6731L10.8225 22.0584C11.1967 22.4327 11.8033 22.4327 12.1775 22.0584L17.5629 16.6731C17.5859 16.6506 17.6084 16.628 17.6309 16.605L17.6592 16.5768C17.6683 16.5677 17.6741 16.5571 17.6822 16.5485L17.6822 16.5485Z" id="Shape" fill="#D1C4E9" stroke="none" clip-path="url(#clip_1)" />
    <path d="M6.94795 10.7812C6.94795 8.2672 8.98599 6.22916 11.5 6.22916C14.0141 6.22916 16.0521 8.2672 16.0521 10.7812C16.0521 13.2953 14.0141 15.3333 11.5 15.3333C8.98599 15.3333 6.94795 13.2953 6.94795 10.7812Z" id="Circle" fill="url(#gradient_1)" fill-rule="evenodd" stroke="none" clip-path="url(#clip_1)" />
    <path d="M6.94795 10.7812C6.94795 8.2672 8.98599 6.22916 11.5 6.22916C14.0141 6.22916 16.0521 8.2672 16.0521 10.7812C16.0521 13.2953 14.0141 15.3333 11.5 15.3333C8.98599 15.3333 6.94795 13.2953 6.94795 10.7812Z" id="Circle" fill="url(#gradient_1)" fill-rule="evenodd" stroke="none" clip-path="url(#clip_1)" />
    <path d="M7.6667 10.5417C7.6667 8.42458 9.38295 6.70834 11.5 6.70834C13.6171 6.70834 15.3334 8.42458 15.3334 10.5417C15.3334 12.6588 13.6171 14.375 11.5 14.375C9.38295 14.375 7.6667 12.6588 7.6667 10.5417Z" id="Circle" fill="#F9F9F9" fill-rule="evenodd" stroke="none" clip-path="url(#clip_1)" />
    <path d="M7.6667 10.5417C7.6667 8.42458 9.38295 6.70834 11.5 6.70834C13.6171 6.70834 15.3334 8.42458 15.3334 10.5417C15.3334 12.6588 13.6171 14.375 11.5 14.375C9.38295 14.375 7.6667 12.6588 7.6667 10.5417Z" id="Circle" fill="#F9F9F9" fill-rule="evenodd" stroke="none" clip-path="url(#clip_1)" />
    <path d="M11.5 15.3333C9.48944 15.3333 7.72227 16.3669 6.69446 17.9304L10.8225 22.0584C11.1967 22.4327 11.8033 22.4327 12.1776 22.0584L16.3056 17.9304C15.2778 16.3669 13.5106 15.3333 11.5 15.3333L11.5 15.3333Z" id="Shape" fill="#B19BDA" stroke="none" clip-path="url(#clip_1)" />
    <path d="M11.5 15.3333C9.48944 15.3333 7.72227 16.3669 6.69446 17.9304L10.8225 22.0584C11.1967 22.4327 11.8033 22.4327 12.1776 22.0584L16.3056 17.9304C15.2778 16.3669 13.5106 15.3333 11.5 15.3333L11.5 15.3333Z" id="Shape" fill="#B19BDA" stroke="none" clip-path="url(#clip_1)" />
  </g>
</svg>